<svg width="123" height="36" viewBox="0 0 123 36" fill="none" xmlns="http://www.w3.org/2000/svg">
<g clip-path="url(#clip0_12951_9252)">
<path d="M24.8088 25.7533C22.7957 28.1864 19.874 29.5828 16.7956 29.5828C10.958 29.5828 6.20897 24.6263 6.20897 18.5341C6.20897 12.4419 10.958 7.4825 16.7956 7.4825C19.9713 7.4825 22.9525 8.95167 24.9743 11.5144L25.1775 11.7721L29.2792 7.60772L29.105 7.40387C25.9903 3.75349 21.5025 1.6582 16.7956 1.6582C7.75617 1.6582 0.40332 9.22833 0.40332 18.5326C0.40332 27.8369 7.75617 35.4056 16.7956 35.4056C21.4125 35.4056 25.8437 33.3773 28.9497 29.842L29.1297 29.6366L25.012 25.5058L24.8088 25.7518V25.7533Z" fill="#17313B"/>
<path d="M37.597 0.796875H32.1426V35.1151H37.597V0.796875Z" fill="#17313B"/>
<path d="M62.3832 11.7578V35.1147H56.9288V33.5159C55.338 34.7332 53.3525 35.4569 51.2029 35.4569C49.7704 35.4569 48.4104 35.1351 47.1927 34.5614C43.972 33.0441 41.7383 29.7592 41.7383 25.9618V11.7578H47.1927V24.4358C47.1927 27.4659 49.3727 29.9223 52.0607 29.9223C54.7487 29.9223 56.9288 27.4659 56.9288 24.4358V11.7578H62.3832Z" fill="#17313B"/>
<path d="M117.172 12.3115C115.954 11.7378 114.594 11.416 113.162 11.416C111.012 11.416 109.027 12.1397 107.436 13.357V0.796875H101.981V35.1151H107.436V22.405C107.45 19.3895 109.625 16.9506 112.304 16.9506C114.983 16.9506 117.172 19.4069 117.172 22.437V35.1151H122.626V20.9111C122.626 17.1136 120.393 13.8287 117.172 12.3115Z" fill="#17313B"/>
<path d="M77.3762 11.7574H73.228V3.5H67.7736V11.7574H63.624V17.2308H67.7736V35.1143H73.228V17.2308H77.3762V11.7574Z" fill="#17313B"/>
<path d="M90.0423 27.0967C92.0936 27.0967 93.7565 25.4285 93.7565 23.3706C93.7565 21.3128 92.0936 19.6445 90.0423 19.6445C87.991 19.6445 86.3281 21.3128 86.3281 23.3706C86.3281 25.4285 87.991 27.0967 90.0423 27.0967Z" fill="#EF4335"/>
<path d="M95.568 27.3986L99.2778 31.3256C97.0804 33.7587 93.9061 35.289 90.3836 35.289C83.7666 35.289 78.3818 29.8884 78.3818 23.2488C78.3818 16.6091 83.7666 11.207 90.3836 11.207C93.9889 11.207 97.2284 12.8102 99.4317 15.3437L95.5317 19.0538C94.3169 17.5526 92.462 16.5945 90.3836 16.5945C86.7217 16.5945 83.7521 19.5736 83.7521 23.2488C83.7521 26.9239 86.7217 29.9016 90.3836 29.9016C92.4823 29.9016 94.3532 28.9245 95.568 27.3986Z" fill="#17313B"/>
</g>
<defs>
<clipPath id="clip0_12951_9252">
<rect width="122.223" height="34.6604" fill="white" transform="translate(0.40332 0.796875)"/>
</clipPath>
</defs>
</svg>
