<svg width="23" height="22" viewBox="0 0 23 22" fill="none" xmlns="http://www.w3.org/2000/svg">
<path d="M15.3981 6.68209L21.2037 7.56542C21.6845 7.63625 22.0885 7.98625 22.242 8.46542C22.3955 8.94875 22.2703 9.47375 21.9229 9.83208L17.7131 14.0904L18.7069 20.1987C18.7877 20.6987 18.5898 21.2071 18.1858 21.5029C17.7858 21.7987 17.2565 21.8362 16.8243 21.5987L11.6368 18.7446L6.45332 21.5987C6.01699 21.8362 5.48774 21.7987 5.08777 21.5029C4.6878 21.2071 4.48579 20.6987 4.57063 20.1987L5.5645 14.0904L1.35391 9.83208C1.00606 9.47375 0.882429 8.94875 1.03514 8.46542C1.18746 7.98625 1.59025 7.63625 2.07466 7.56542L7.87544 6.68209L10.4773 1.16835C10.6914 0.709347 11.1439 0.417969 11.6368 0.417969C12.1337 0.417969 12.5862 0.709347 12.8003 1.16835L15.3981 6.68209Z" fill="white"/>
</svg>
