<svg width="29" height="32" viewBox="0 0 29 32" fill="none" xmlns="http://www.w3.org/2000/svg">
<g clip-path="url(#clip0_1190_3676)">
<path d="M14.1867 8.80781C10.2117 8.80781 7.00547 12.0141 7.00547 15.9891C7.00547 19.9641 10.2117 23.1703 14.1867 23.1703C18.1617 23.1703 21.368 19.9641 21.368 15.9891C21.368 12.0141 18.1617 8.80781 14.1867 8.80781ZM14.1867 20.6578C11.618 20.6578 9.51797 18.5641 9.51797 15.9891C9.51797 13.4141 11.6117 11.3203 14.1867 11.3203C16.7617 11.3203 18.8555 13.4141 18.8555 15.9891C18.8555 18.5641 16.7555 20.6578 14.1867 20.6578ZM23.3367 8.51406C23.3367 9.44531 22.5867 10.1891 21.6617 10.1891C20.7305 10.1891 19.9867 9.43906 19.9867 8.51406C19.9867 7.58906 20.7367 6.83906 21.6617 6.83906C22.5867 6.83906 23.3367 7.58906 23.3367 8.51406ZM28.093 10.2141C27.9867 7.97031 27.4742 5.98281 25.8305 4.34531C24.193 2.70781 22.2055 2.19531 19.9617 2.08281C17.6492 1.95156 10.718 1.95156 8.40547 2.08281C6.16797 2.18906 4.18047 2.70156 2.53672 4.33906C0.892969 5.97656 0.386719 7.96406 0.274219 10.2078C0.142969 12.5203 0.142969 19.4516 0.274219 21.7641C0.380469 24.0078 0.892969 25.9953 2.53672 27.6328C4.18047 29.2703 6.16172 29.7828 8.40547 29.8953C10.718 30.0266 17.6492 30.0266 19.9617 29.8953C22.2055 29.7891 24.193 29.2766 25.8305 27.6328C27.468 25.9953 27.9805 24.0078 28.093 21.7641C28.2242 19.4516 28.2242 12.5266 28.093 10.2141ZM25.1055 24.2453C24.618 25.4703 23.6742 26.4141 22.443 26.9078C20.5992 27.6391 16.2242 27.4703 14.1867 27.4703C12.1492 27.4703 7.76797 27.6328 5.93047 26.9078C4.70547 26.4203 3.76172 25.4766 3.26797 24.2453C2.53672 22.4016 2.70547 18.0266 2.70547 15.9891C2.70547 13.9516 2.54297 9.57031 3.26797 7.73281C3.75547 6.50781 4.69922 5.56406 5.93047 5.07031C7.77422 4.33906 12.1492 4.50781 14.1867 4.50781C16.2242 4.50781 20.6055 4.34531 22.443 5.07031C23.668 5.55781 24.6117 6.50156 25.1055 7.73281C25.8367 9.57656 25.668 13.9516 25.668 15.9891C25.668 18.0266 25.8367 22.4078 25.1055 24.2453Z" fill="#20222D"/>
</g>
<defs>
<clipPath id="clip0_1190_3676">
<rect width="28" height="32" fill="white" transform="translate(0.179688)"/>
</clipPath>
</defs>
</svg>
