<svg width="29" height="29" viewBox="0 0 29 29" fill="none" xmlns="http://www.w3.org/2000/svg">
<path d="M6.30791 28.1805H0.465482V9.36584H6.30791V28.1805ZM3.38355 6.79934C1.51533 6.79934 0 5.25189 0 3.38363C1.33719e-08 2.48623 0.35648 1.62559 0.991019 0.991042C1.62556 0.356488 2.48618 0 3.38355 0C4.28093 0 5.14155 0.356488 5.77608 0.991042C6.41062 1.62559 6.7671 2.48623 6.7671 3.38363C6.7671 5.25189 5.25114 6.79934 3.38355 6.79934ZM28.1743 28.1805H22.3444V19.0217C22.3444 16.8389 22.3004 14.0396 19.3068 14.0396C16.2692 14.0396 15.8037 16.4111 15.8037 18.8644V28.1805H9.96761V9.36584H15.571V11.9323H15.6528C16.4328 10.4541 18.3381 8.89405 21.1807 8.89405C27.0936 8.89405 28.1805 12.7878 28.1805 17.8454V28.1805H28.1743Z" fill="#20222D"/>
</svg>
