<svg width="40" height="28" viewBox="0 0 40 28" fill="none" xmlns="http://www.w3.org/2000/svg">
<path d="M38.3647 4.38105C37.9162 2.65657 36.5947 1.29843 34.9167 0.837521C31.8753 0 19.6797 0 19.6797 0C19.6797 0 7.48411 0 4.44264 0.837521C2.7647 1.2985 1.44316 2.65657 0.99463 4.38105C0.179688 7.50677 0.179688 14.0283 0.179688 14.0283C0.179688 14.0283 0.179688 20.5498 0.99463 23.6755C1.44316 25.4 2.7647 26.7016 4.44264 27.1625C7.48411 28 19.6797 28 19.6797 28C19.6797 28 31.8753 28 34.9167 27.1625C36.5947 26.7016 37.9162 25.4 38.3647 23.6755C39.1797 20.5498 39.1797 14.0283 39.1797 14.0283C39.1797 14.0283 39.1797 7.50677 38.3647 4.38105ZM15.691 19.9493V8.10724L25.8842 14.0284L15.691 19.9493Z" fill="#20222D"/>
</svg>
